IKResults
version=1
nRows=7
nColumns=40
inDegrees=yes

Units are S.I. units (second, meters, Newtons, ...)
If the header above contains a line with 'inDegrees', this indicates whether rotational values are in degrees (yes) or radians (no).

endheader
time	pelvis_tilt	pelvis_list	pelvis_rotation	pelvis_tx	pelvis_ty	pelvis_tz	hip_flexion_r	hip_adduction_r	hip_rotation_r	knee_angle_r	knee_angle_r_beta	ankle_angle_r	subtalar_angle_r	mtp_angle_r	hip_flexion_l	hip_adduction_l	hip_rotation_l	knee_angle_l	knee_angle_l_beta	ankle_angle_l	subtalar_angle_l	mtp_angle_l	lumbar_extension	lumbar_bending	lumbar_rotation	arm_flex_r	arm_add_r	arm_rot_r	elbow_flex_r	pro_sup_r	wrist_flex_r	wrist_dev_r	arm_flex_l	arm_add_l	arm_rot_l	elbow_flex_l	pro_sup_l	wrist_flex_l	wrist_dev_l
      0.00000000	     14.93128880	     -2.35172273	      4.49101965	     -0.84270652	      0.52098455	      0.28114718	     44.56726580	    -10.07887901	      0.00000000	     60.31330478	      1.05266575	     -4.95120881	      0.00000000	      0.00000000	     44.56726580	    -10.07887901	      0.00000000	     60.31330478	      1.05266575	     -4.95120881	      0.00000000	      0.00000000	    -28.31418753	      5.35624692	     -3.07541990	    -10.69049044	    -29.98054632	     -8.73001780	    120.72070189	     89.11425345	      0.00000000	      0.00000000	     -8.76235469	    -26.77229938	    -11.44059458	    117.19683771	     89.46079100	      0.00000000	      0.00000000
      0.00500000	     14.84891247	     -2.36574765	      4.51110806	     -0.84280822	      0.52080112	      0.28109817	     44.58331552	    -10.07115558	      0.00000000	     60.30392700	      1.05250208	     -4.95688788	      0.00000000	      0.00000000	     44.58331552	    -10.07115558	      0.00000000	     60.30392700	      1.05250208	     -4.95688788	      0.00000000	      0.00000000	    -28.22873351	      5.38333384	     -3.09445712	    -10.68420177	    -30.00674783	     -8.70903251	    120.71257572	     89.12900359	      0.00000000	      0.00000000	     -8.73166540	    -26.74584306	    -11.39829987	    117.18096778	     89.44664896	      0.00000000	      0.00000000
      0.01000000	     14.85631070	     -2.35205925	      4.50518221	     -0.84277489	      0.52085515	      0.28108753	     44.61138819	    -10.05816500	      0.00000000	     60.28753012	      1.05221590	     -4.96624016	      0.00000000	      0.00000000	     44.61138819	    -10.05816500	      0.00000000	     60.28753012	      1.05221590	     -4.96624016	      0.00000000	      0.00000000	    -28.23024379	      5.36813006	     -3.09694844	    -10.68323579	    -29.99948925	     -8.71411458	    120.69751809	     89.12659406	      0.00000000	      0.00000000	     -8.73029761	    -26.74614622	    -11.40014545	    117.15959872	     89.44899075	      0.00000000	      0.00000000
      0.01500000	     14.95534727	     -2.33561669	      4.54038256	     -0.84261027	      0.52095117	      0.28114314	     44.63971491	    -10.04696507	      0.00000000	     60.27069410	      1.05192205	     -4.97393053	      0.00000000	      0.00000000	     44.63971491	    -10.04696507	      0.00000000	     60.27069410	      1.05192205	     -4.97393053	      0.00000000	      0.00000000	    -28.30929933	      5.37313077	     -3.17061053	    -10.64398843	    -30.05616598	     -8.55793009	    120.73915954	     89.12563687	      0.00000000	      0.00000000	     -8.84298163	    -26.85694168	    -11.60727360	    117.17862846	     89.43453168	      0.00000000	      0.00000000
      0.02000000	     14.88026154	     -2.28623189	      4.58731285	     -0.84273436	      0.52078934	      0.28093760	     44.65316057	    -10.04255793	      0.00000000	     60.26251519	      1.05177931	     -4.97679136	      0.00000000	      0.00000000	     44.65316057	    -10.04255793	      0.00000000	     60.26251519	      1.05177931	     -4.97679136	      0.00000000	      0.00000000	    -28.23332102	      5.35508532	     -3.24848387	    -10.60806701	    -30.09190678	     -8.52016855	    120.75043999	     89.12145848	      0.00000000	      0.00000000	     -8.81748853	    -26.86571148	    -11.53655439	    117.23965152	     89.44804028	      0.00000000	      0.00000000
      0.02500000	     14.86643588	     -2.25551589	      4.55058422	     -0.84265382	      0.52076693	      0.28091295	     44.66017208	    -10.04079844	      0.00000000	     60.25777601	      1.05169659	     -4.97792322	      0.00000000	      0.00000000	     44.66017208	    -10.04079844	      0.00000000	     60.25777601	      1.05169659	     -4.97792322	      0.00000000	      0.00000000	    -28.21676189	      5.31390938	     -3.21616633	    -10.65280940	    -30.08560117	     -8.55398673	    120.76899994	     89.14134941	      0.00000000	      0.00000000	     -8.84041388	    -26.81129127	    -11.56076126	    117.23502421	     89.43772204	      0.00000000	      0.00000000
      0.03000000	     14.96601886	     -2.28783590	      4.61295183	     -0.84256673	      0.52098656	      0.28092197	     44.68183367	    -10.03319191	      0.00000000	     60.24483307	      1.05147069	     -4.98292493	      0.00000000	      0.00000000	     44.68183367	    -10.03319191	      0.00000000	     60.24483307	      1.05147069	     -4.98292493	      0.00000000	      0.00000000	    -28.30865829	      5.36780660	     -3.25658140	    -10.62409190	    -30.09134796	     -8.49750283	    120.73051245	     89.12662279	      0.00000000	      0.00000000	     -8.82169866	    -26.85194020	    -11.54332495	    117.23064490	     89.44660495	      0.00000000	      0.00000000
